<svg width="25" height="12" viewBox="0 0 25 12" fill="none" xmlns="http://www.w3.org/2000/svg">
<g id="Battery">
<path id="Border" opacity="0.35" d="M18.8333 0.833008H3.16667C1.69391 0.833008 0.5 2.02692 0.5 3.49967V8.49967C0.5 9.97243 1.69391 11.1663 3.16667 11.1663H18.8333C20.3061 11.1663 21.5 9.97243 21.5 8.49967V3.49967C21.5 2.02692 20.3061 0.833008 18.8333 0.833008Z" stroke="black"/>
<path id="Cap" opacity="0.4" d="M23 4V8C23.8047 7.66122 24.328 6.87313 24.328 6C24.328 5.12687 23.8047 4.33878 23 4Z" fill="black"/>
<path id="Capacity" d="M18.6667 2.33301H3.33333C2.59695 2.33301 2 2.92996 2 3.66634V8.33301C2 9.06939 2.59695 9.66634 3.33333 9.66634H18.6667C19.403 9.66634 20 9.06939 20 8.33301V3.66634C20 2.92996 19.403 2.33301 18.6667 2.33301Z" fill="black"/>
</g>
</svg>
