<svg width="18" height="12" viewBox="0 0 18 12" fill="none" xmlns="http://www.w3.org/2000/svg">
<path id="Cellular Connection" d="M1.6665 7.33366H2.6665C3.21879 7.33366 3.6665 7.78137 3.6665 8.33366V10.3337C3.6665 10.8859 3.21879 11.3337 2.6665 11.3337H1.6665C1.11422 11.3337 0.666504 10.8859 0.666504 10.3337V8.33366C0.666504 7.78137 1.11422 7.33366 1.6665 7.33366ZM6.33319 5.33366H7.33319C7.88548 5.33366 8.33319 5.78137 8.33319 6.33366V10.3337C8.33319 10.8859 7.88548 11.3337 7.33319 11.3337H6.33319C5.78091 11.3337 5.33319 10.8859 5.33319 10.3337V6.33366C5.33319 5.78137 5.78091 5.33366 6.33319 5.33366ZM10.9998 3.00033H11.9998C12.5521 3.00033 12.9998 3.44804 12.9998 4.00033V10.3337C12.9998 10.8859 12.5521 11.3337 11.9998 11.3337H10.9998C10.4476 11.3337 9.99985 10.8859 9.99985 10.3337V4.00033C9.99985 3.44804 10.4476 3.00033 10.9998 3.00033ZM15.6665 0.666992H16.6665C17.2188 0.666992 17.6665 1.11471 17.6665 1.66699V10.3337C17.6665 10.8859 17.2188 11.3337 16.6665 11.3337H15.6665C15.1142 11.3337 14.6665 10.8859 14.6665 10.3337V1.66699C14.6665 1.11471 15.1142 0.666992 15.6665 0.666992Z" fill="black"/>
</svg>
