<svg width="16" height="12" viewBox="0 0 16 12" fill="none" xmlns="http://www.w3.org/2000/svg">
<path id="Wifi" d="M8.33045 2.60838C10.5463 2.60848 12.6775 3.45992 14.2835 4.98672C14.4044 5.10459 14.5977 5.1031 14.7168 4.98338L15.8728 3.81672C15.9331 3.75599 15.9667 3.67374 15.9662 3.58816C15.9657 3.50258 15.9311 3.42073 15.8701 3.36072C11.655 -0.678832 5.00524 -0.678832 0.790138 3.36072C0.729079 3.42068 0.694418 3.50251 0.693855 3.58809C0.693292 3.67367 0.726852 3.75595 0.787116 3.81672L1.94346 4.98338C2.06249 5.10328 2.25595 5.10477 2.37681 4.98672C3.98296 3.45982 6.11434 2.60838 8.33045 2.60838ZM8.33045 6.40405C9.54794 6.40397 10.722 6.85651 11.6245 7.67372C11.7465 7.7897 11.9388 7.78718 12.0578 7.66805L13.2125 6.50138C13.2733 6.44019 13.307 6.35717 13.3061 6.27091C13.3053 6.18464 13.2698 6.10233 13.2078 6.04238C10.4596 3.486 6.20365 3.486 3.45545 6.04238C3.39337 6.10233 3.35797 6.18468 3.35715 6.27097C3.35634 6.35727 3.39018 6.44028 3.45112 6.50138L4.60548 7.66805C4.72446 7.78718 4.91673 7.7897 5.03879 7.67372C5.94067 6.85705 7.11377 6.40455 8.33045 6.40405ZM10.5495 9.18838C10.6112 9.12778 10.6452 9.04437 10.6435 8.95787C10.6417 8.87136 10.6043 8.78942 10.5401 8.73138C9.26457 7.6525 7.39637 7.6525 6.1208 8.73138C6.05657 8.78937 6.01914 8.87129 6.01731 8.95779C6.01548 9.0443 6.04941 9.12773 6.11112 9.18838L8.1088 11.204C8.16735 11.2633 8.24716 11.2966 8.33045 11.2966C8.41374 11.2966 8.49358 11.2633 8.55213 11.204L10.5495 9.18838Z" fill="black"/>
</svg>
